<?xml version="1.0" standalone="no"?>
<!DOCTYPE svg PUBLIC "-//W3C//DTD SVG 20010904//EN"
 "http://www.w3.org/TR/2001/REC-SVG-20010904/DTD/svg10.dtd">
<svg version="1.0" xmlns="http://www.w3.org/2000/svg"
 width="1024.000000pt" height="1024.000000pt" viewBox="0 0 1024.000000 1024.000000"
 preserveAspectRatio="xMidYMid meet">
<metadata>
Created by potrace 1.11, written by Peter Selinger 2001-2013
</metadata>
<g transform="translate(0.000000,1024.000000) scale(0.100000,-0.100000)"
fill="#000000" stroke="none">
<path d="M995 10159 c-22 -6 -51 -11 -65 -13 -28 -4 -137 -35 -160 -46 -8 -4
-40 -19 -71 -33 -101 -46 -203 -120 -301 -219 -54 -54 -98 -103 -98 -109 0 -5
-8 -19 -18 -29 -39 -42 -139 -263 -143 -317 -1 -5 -5 -15 -9 -23 -4 -8 -12
-42 -16 -75 -10 -67 -12 -8257 -3 -8320 22 -141 86 -307 164 -426 58 -87 197
-228 278 -282 99 -66 243 -132 332 -154 135 -31 98 -31 4290 -30 l4130 2 85
24 c201 56 354 144 490 282 83 84 167 193 163 210 -2 5 1 9 6 9 10 0 63 117
91 202 53 165 50 -102 47 4343 -2 2261 -6 4128 -11 4150 -9 47 -42 157 -61
200 -50 117 -69 155 -76 155 -5 0 -9 6 -9 13 0 12 -9 25 -91 125 -114 142
-306 269 -489 325 -158 48 80 46 -4310 45 -2520 0 -4120 -4 -4145 -9z"/>
</g>
</svg>
